Coordinates
version=1
nRows=7
nColumns=63
inDegrees=yes

Units are S.I. units (second, meters, Newtons, ...)
If the header above contains a line with 'inDegrees', this indicates whether rotational values are in degrees (yes) or radians (no).

endheader
time	pelvis_tilt	pelvis_list	pelvis_rotation	pelvis_tx	pelvis_ty	pelvis_tz	hip_flexion_r	hip_adduction_r	hip_rotation_r	knee_angle_r	knee_angle_r_beta	ankle_angle_r	subtalar_angle_r	mtp_angle_r	hip_flexion_l	hip_adduction_l	hip_rotation_l	knee_angle_l	knee_angle_l_beta	ankle_angle_l	subtalar_angle_l	mtp_angle_l	L5_S1_Flex_Ext	L5_S1_Lat_Bending	L5_S1_axial_rotation	L4_L5_Flex_Ext	L4_L5_Lat_Bending	L4_L5_axial_rotation	L3_L4_Flex_Ext	L3_L4_Lat_Bending	L3_L4_axial_rotation	L2_L3_Flex_Ext	L2_L3_Lat_Bending	L2_L3_axial_rotation	L1_L2_Flex_Ext	L1_L2_Lat_Bending	L1_L2_axial_rotation	L1_T12_Flex_Ext	L1_T12_Lat_Bending	L1_T12_axial_rotation	Abs_r3	Abs_r2	Abs_r1	Abs_t1	Abs_t2	neck_flexion	neck_bending	neck_rotation	arm_flex_r	arm_add_r	arm_rot_r	elbow_flex_r	pro_sup_r	wrist_flex_r	wrist_dev_r	arm_flex_l	arm_add_l	arm_rot_l	elbow_flex_l	pro_sup_l	wrist_flex_l	wrist_dev_l
      1.88135593	      1.22426792	     -2.29130657	    102.11122435	      0.26097234	      0.68369496	      0.69483769	      1.44010423	     -0.45465939	    -10.51225491	      6.91738914	      0.12073122	     25.65232395	     -2.06177938	      0.00000000	      3.26119541	     -3.03305905	     17.55552359	      5.28397348	      0.09222273	     19.98513161	      0.39650014	      0.00000000	      0.23802266	     -0.13450087	     -3.25171921	      0.44203188	     -0.17888616	     -3.45495167	      0.39104742	     -0.32702543	     -3.45495167	      0.27203610	     -0.32702543	     -2.84525431	      0.22102784	     -0.27427418	     -2.64202186	      0.13600615	     -0.20834186	     -2.43878941	      1.70017204	     -1.52150080	    -18.08508675	      0.00000000	      0.00000000	     17.66017551	      4.92499862	     -6.37104151	     -4.07334286	    -17.87724836	     15.82307962	    123.23477705	     73.55716818	    -13.14078760	     24.72801315	     -4.06193724	    -15.92449417	     25.81801847	     96.53307877	     88.27871877	      1.93039731	      9.53663618
      1.89830508	      1.33429653	     -2.15071747	    102.04498261	      0.26076169	      0.68402637	      0.69498984	      1.41605255	     -0.36055719	    -10.78388396	      7.11857489	      0.12424257	     25.64572406	     -1.74248018	      0.00000000	      3.14988457	     -3.17792945	     17.01822074	      5.30603312	      0.09260775	     19.91090124	      0.92353894	      0.00000000	      0.21995589	     -0.12165539	     -3.30799489	      0.40848008	     -0.16180166	     -3.51474457	      0.36136553	     -0.29579290	     -3.51474457	      0.25138759	     -0.29579290	     -2.89449553	      0.20425104	     -0.24807966	     -2.68774585	      0.12568280	     -0.18844419	     -2.48099617	      1.57112293	     -1.37619005	    -18.39807518	      0.00000000	      0.00000000	     17.31548108	      5.19490867	     -6.18503767	     -3.77934725	    -17.93203185	     15.87182789	    122.97233758	     72.06117357	    -13.55479653	     24.23432337	     -4.19540705	    -15.73994598	     25.31703540	     96.55735535	     88.20437777	      1.47427776	      9.64960090
      1.91525424	      1.39089986	     -2.16280877	    102.55891372	      0.26010772	      0.68412935	      0.69542607	      1.53789973	     -0.32662183	    -10.90251256	      7.37923451	      0.12879194	     25.64744873	     -2.40948962	      0.00000000	      3.39835434	     -3.17564187	     17.29931155	      5.57330273	      0.09727248	     19.75305886	      1.11388137	      0.00000000	      0.22329524	     -0.11338627	     -3.56578670	      0.41468160	     -0.15080374	     -3.78864837	      0.36685175	     -0.27568737	     -3.78864837	      0.25520413	     -0.27568737	     -3.12006336	      0.20735196	     -0.23121728	     -2.89720169	      0.12759090	     -0.17563533	     -2.67434002	      1.59497559	     -1.28264814	    -19.83183588	      0.00000000	      0.00000000	     16.85012306	      5.56320193	     -5.09710685	     -2.80058279	    -17.95456303	     16.67699513	    122.71015204	     72.20350176	    -14.74795760	     25.68832261	     -4.82119119	    -15.62603013	     24.23095718	     96.94886279	     88.16186941	      0.79568883	     10.09487962
      1.93220339	      1.46372179	     -2.03088806	    102.66777528	      0.25953736	      0.68453315	      0.69553543	      1.51928190	     -0.30798013	    -11.40259477	      7.63175305	      0.13319922	     25.74409948	     -1.92340876	      0.00000000	      3.17219053	     -3.14137979	     20.07674580	      5.39712528	      0.09419761	     18.72611887	     -2.80180400	      0.00000000	      0.20596643	     -0.09727537	     -3.72586692	      0.38250026	     -0.12937624	     -3.95873361	      0.33838225	     -0.23651533	     -3.95873361	      0.23539903	     -0.23651533	     -3.26013356	      0.19126043	     -0.19836393	     -3.02726687	      0.11768922	     -0.15067954	     -2.79440019	      1.47119762	     -1.10039840	    -20.72215406	      0.00000000	      0.00000000	     16.19856662	      5.81974979	     -4.32372839	     -1.95129944	    -17.97701408	     16.80352010	    121.88619388	     73.38025655	    -12.60252551	     25.86249847	     -5.17475949	    -15.49874562	     23.47895798	     97.00181902	     88.17337894	      0.69884754	      9.97021778
      1.94915254	      1.52051649	     -1.96110956	    102.62308307	      0.25926935	      0.68495768	      0.69569276	      1.62166340	     -0.27903555	    -11.20240229	      7.94297417	      0.13863105	     25.58572000	     -2.26466512	      0.00000000	      3.16878552	     -3.22691140	     19.28428494	      5.48377543	      0.09570994	     18.94725596	     -1.65025272	      0.00000000	      0.19216787	     -0.08409308	     -3.88900346	      0.35687495	     -0.11184379	     -4.13206618	      0.31571259	     -0.20446391	     -4.13206618	      0.21962866	     -0.20446391	     -3.40287803	      0.17844708	     -0.17148260	     -3.15981531	      0.10980472	     -0.13026018	     -2.91675260	      1.37263586	     -0.95127771	    -21.62947055	      0.00000000	      0.00000000	     15.55804960	      6.15859314	     -3.46810568	     -0.83585664	    -17.95067071	     16.96643107	    120.86115126	     75.77267056	     -9.59130725	     26.19480398	     -5.65445179	    -15.33601284	     22.47820220	     97.13425601	     88.12814032	      1.09336520	     10.25388129
      1.96610169	      1.56899201	     -1.84807084	    102.57359241	      0.25892929	      0.68547789	      0.69573063	      1.67237462	     -0.28847492	    -11.52915221	      8.27527806	      0.14443085	     25.63699831	     -1.84454148	      0.00000000	      3.01718123	     -3.28218991	     19.43691832	      5.39538049	      0.09416715	     18.84218687	     -1.91553177	      0.00000000	      0.16951121	     -0.07186954	     -4.07872050	      0.31479927	     -0.09558649	     -4.33364053	      0.27848997	     -0.17474361	     -4.33364053	      0.19373436	     -0.17474361	     -3.56888044	      0.15740811	     -0.14655638	     -3.31396041	      0.09685870	     -0.11132592	     -3.05904038	      1.21080162	     -0.81300267	    -22.68461981	      0.00000000	      0.00000000	     14.93139175	      6.11115786	     -2.94925851	      0.55329197	    -18.01791798	     17.36124686	    119.48874982	     77.71267812	     -6.13328389	     25.49430857	     -6.28427207	    -15.11761930	     21.38601001	     97.32914917	     87.94950738	      1.38218933	     10.75484342
      1.98305085	      1.61000432	     -1.74234615	    102.48456688	      0.25873466	      0.68604141	      0.69565014	      1.70376091	     -0.31471008	    -12.17604762	      8.56598282	      0.14950460	     25.76228771	     -1.01473964	      0.00000000	      2.88889929	     -3.33619182	     19.64995481	      5.37637702	      0.09383548	     18.66318056	     -2.17185978	      0.00000000	      0.14816752	     -0.06464238	     -4.17099967	      0.27516189	     -0.08597436	     -4.43168715	      0.24342441	     -0.15717148	     -4.43168715	      0.16934065	     -0.15717148	     -3.64962471	      0.13758836	     -0.13181874	     -3.38893723	      0.08466292	     -0.10013104	     -3.12824975	      1.05834575	     -0.73124751	    -23.19784888	      0.00000000	      0.00000000	     14.37232026	      6.59618158	     -2.46608989	      1.44971425	    -17.65136886	     16.17363273	    118.21585779	     83.88433435	      1.10956310	     24.69730320	     -6.52191183	    -15.00078963	     20.83733022	     97.37783887	     87.68931481	      2.69587574	     11.74239797
